<svg fill="#fff" height="100px" width="100px" xmlns="http://www.w3.org/2000/svg" viewBox="0 0 491.52 491.52">
    <path d="M348.16,163.84c11.326,0,20.48-9.155,20.48-20.48V81.92c0-11.325-9.155-20.48-20.48-20.48h-20.48V20.48
			C327.68,9.155,318.525,0,307.2,0H184.32c-11.325,0-20.48,9.155-20.48,20.48v40.96h-20.48c-11.325,0-20.48,9.155-20.48,20.48v61.44
			c0,11.325,9.155,20.48,20.48,20.48h20.48v163.84h-20.48c-11.325,0-20.48,9.155-20.48,20.48v61.44
			c0,11.325,9.155,20.48,20.48,20.48h20.48v40.96c0,11.325,9.155,20.48,20.48,20.48H307.2c11.325,0,20.48-9.155,20.48-20.48v-40.96
			h20.48c11.326,0,20.48-9.155,20.48-20.48v-61.44c0-11.325-9.155-20.48-20.48-20.48h-20.48V163.84H348.16z M327.68,389.12H307.2
			H184.32h-20.48v-20.48h20.48H307.2h20.48V389.12z M307.2,122.88H184.32h-20.48V102.4h20.48H307.2h20.48v20.48H307.2z"/>
</svg>